# xmcd CD database file
#
# Track frame offsets:
#	150
#	25904
#	61249
#	88881
#	116782
#	149242
#	177105
#	200288
#	221160
#	256847
#	267878
#
# Disc length: 3810 seconds
#
# Revision: 0
# Processed by: cddbd v1.5.1PL0 Copyright (c) Steve Scherf et al.
# Submitted via: CDex 1.51
#
DISCID=a80ee00b
DTITLE=Nate Birkey Quintet - Indelibly You
DYEAR=1900
DGENRE=Jazz
TTITLE0=It Never Entered My Mind
TTITLE1=Alone Again
TTITLE2=Natalie
TTITLE3=Twilight
TTITLE4=On To Guadalupe
TTITLE5=Soft As An Easy Chair
TTITLE6=Indelibly You
TTITLE7=Frantic
TTITLE8=Blue
TTITLE9=Happy Little Sunbeam
TTITLE10=She Walks
EXTD=
EXTT0=
EXTT1=
EXTT2=
EXTT3=
EXTT4=
EXTT5=
EXTT6=
EXTT7=
EXTT8=
EXTT9=
EXTT10=
PLAYORDER=
